<svg width="48" height="38" viewBox="0 0 48 38" fill="none" xmlns="http://www.w3.org/2000/svg">
<path d="M7.60716 31.4299C6.33469 30.2869 5.18288 29.3124 4.10981 28.485C3.03684 27.6575 2.04253 26.9773 1.08506 26.4227C-0.361687 25.5846 -0.361687 23.5094 1.08506 22.6713C2.04253 22.1167 3.03684 21.4365 4.10981 20.609C5.18278 19.7816 6.33459 18.8072 7.60716 17.6641V31.4299Z" fill="#3F4E6A"/>
<path d="M17.663 23.7524C15.9418 22.2078 8.57472 19.343 6.11762 19.646C6.03887 19.8277 5.96416 20.0114 5.89394 20.1971C5.38103 21.5553 5.10156 23.02 5.10156 24.547C5.10156 26.0741 5.38112 27.5388 5.89394 28.897C7.06141 31.9887 9.43787 34.5287 12.4784 35.9962C14.2955 36.8733 16.3498 37.3674 18.5249 37.3674C18.5513 37.3674 18.5776 37.3665 18.604 37.3663C18.085 34.1107 17.6879 28.909 17.663 23.7524Z" fill="#F7E969"/>
<path d="M18.6041 11.7277C18.5776 11.7275 18.5515 11.7266 18.525 11.7266C16.3499 11.7266 14.2956 12.2207 12.4785 13.0977C9.62074 14.4772 7.34974 16.8041 6.11768 19.6459C6.46568 20.2426 6.88183 20.8039 7.36455 21.317C9.09321 23.1552 11.5315 24.2094 14.0543 24.2094C15.106 24.2094 16.3635 24.0445 17.6631 23.7523C17.6415 19.2761 17.9004 14.8336 18.6041 11.7277Z" fill="#F8D071"/>
<path d="M20.3253 22.7354C18.3102 22.2082 14.0308 22.3548 12.4869 24.0728C12.4827 24.2305 12.479 24.3883 12.479 24.5471C12.479 27.7104 13.3242 30.6491 14.7715 33.0869C15.7826 34.7898 17.0883 36.2467 18.6043 37.3665C20.75 37.3547 22.7767 36.8629 24.5717 35.9964C25.7926 35.4071 26.9062 34.6446 27.8776 33.7432C27.7473 33.7024 21.6238 24.0768 20.3253 22.7354Z" fill="#3F4E6A"/>
<path d="M24.5717 13.0977C22.7766 12.2313 20.7499 11.7395 18.6042 11.7277C17.0882 12.8473 15.7824 14.3044 14.7714 16.0073C13.3968 18.3226 12.5668 21.0903 12.4868 24.0728C13.0019 24.1627 13.5262 24.2095 14.0543 24.2095C15.1268 24.2095 16.4131 24.0389 17.7401 23.7357C18.0273 24.8639 18.456 25.9374 19.0246 26.9483C20.9438 30.3605 24.1708 32.588 27.8776 33.743C29.3254 32.3995 30.4575 30.7472 31.1561 28.897C31.669 27.5389 31.9485 26.0741 31.9485 24.547C31.9485 23.0199 31.6689 21.5553 31.1561 20.197C29.9886 17.1053 27.6122 14.5654 24.5717 13.0977Z" fill="#223661"/>
<path d="M26.3917 17.1664C24.9864 18.5717 22.2535 18.0649 19.7169 16.9485C17.7015 16.0615 15.81 14.7898 14.8068 13.7866C13.6283 12.6081 13.0628 11.0489 13.1102 9.50501C13.1539 8.08039 13.7194 6.6687 14.8068 5.58129C15.8942 4.49389 17.3058 3.92839 18.7304 3.8847C20.2744 3.83736 21.8335 4.40286 23.0119 5.58129C24.0152 6.58451 25.2869 8.47601 26.1739 10.4915C27.2902 13.0281 27.797 15.761 26.3917 17.1664Z" fill="#81DDFD"/>
<path d="M24.1558 6.95679C21.6155 8.68685 19.6466 11.1053 18.4895 13.9683C18.2237 14.6259 18.0033 15.3004 17.8267 15.9888C18.4268 16.3342 19.0652 16.6617 19.7172 16.9487C22.2538 18.0649 24.9867 18.5718 26.392 17.1664C27.7973 15.7611 27.2905 13.0282 26.1743 10.4916C25.6028 9.19329 24.8719 7.94791 24.1558 6.95679Z" fill="#30CDFA"/>
<path d="M17.3086 20.3638C19.4221 18.2346 20.4769 13.6475 20.3078 10.6845C20.1278 10.6075 19.9459 10.5328 19.7622 10.4614C17.7099 9.66341 15.4732 9.22522 14.0544 9.22522C12.3878 9.22522 10.8855 9.92788 9.82725 11.0531C8.85075 12.0913 8.25244 13.4894 8.25244 15.0272C8.25244 16.565 8.85075 17.9631 9.82725 19.0014C10.8855 20.1266 12.3879 20.8292 14.0544 20.8292C14.9133 20.8292 16.0725 20.6676 17.3086 20.3638Z" fill="#A3E6FF"/>
<path d="M24.6359 15.0273C24.6359 13.1811 22.6589 11.692 20.3076 10.6846C19.576 11.6931 18.9643 12.7933 18.4894 13.9683C17.6825 15.9649 17.2811 18.1216 17.3084 20.3638C18.1141 20.1658 18.9523 19.9079 19.7622 19.593C22.3451 18.5888 24.6359 17.0147 24.6359 15.0273Z" fill="#81DDFD"/>
<path d="M47.0625 15.2349C45.8966 12.3502 43.6832 10.0018 40.6472 8.64608C38.8256 7.83271 36.708 7.37671 34.343 7.37671C34.2408 7.37671 34.1396 7.37868 34.0383 7.38037C26.0693 12.4894 26.1161 26.6713 35.2525 31.2846C36.984 31.2081 38.6277 30.9132 40.1233 30.412C43.0176 29.4421 45.3588 27.7025 46.7151 25.291C47.5394 23.8256 48 22.1121 48 20.1726C48 18.4224 47.6766 16.7542 47.0625 15.2349Z" fill="#F7E969"/>
<path d="M34.0385 7.38037C31.7962 7.41787 29.7817 7.86787 28.0388 8.64609C25.0029 10.0017 22.7895 12.3502 21.6235 15.2349C21.0095 16.7542 20.686 18.4223 20.686 20.1726C20.686 22.1122 21.1466 23.8256 21.9709 25.291C23.3273 27.7025 25.6684 29.4422 28.5626 30.412C30.3181 31.0003 32.277 31.3054 34.3431 31.3054C34.6489 31.3054 34.952 31.2979 35.2527 31.2846C30.8073 25.6248 31.327 13.7204 34.0385 7.38037Z" fill="#F8D071"/>
<path d="M30.5336 12.8129C30.1453 12.8129 29.8305 12.4981 29.8305 12.1097C29.8305 11.2617 29.5194 9.39099 28.8364 7.28771C28.4108 5.97756 27.9005 4.77718 27.3604 3.81662C27.1701 3.47809 27.2902 3.04937 27.6287 2.85906C27.9672 2.66893 28.3958 2.78893 28.5862 3.12737C29.1794 4.18262 29.7135 5.43615 30.1738 6.85337C30.8095 8.81096 31.2367 10.9233 31.2367 12.1096C31.2368 12.4981 30.9219 12.8129 30.5336 12.8129Z" fill="#3F4E6A"/>
<path d="M27.9733 5.09188C29.2047 5.09188 30.203 4.09363 30.203 2.86222C30.203 1.63082 29.2047 0.632568 27.9733 0.632568C26.7419 0.632568 25.7437 1.63082 25.7437 2.86222C25.7437 4.09363 26.7419 5.09188 27.9733 5.09188Z" fill="#223661"/>
<path d="M38.1519 12.8128C37.7635 12.8128 37.4487 12.4981 37.4487 12.1097C37.4487 10.9234 37.8759 8.81098 38.5116 6.85339C38.9719 5.43617 39.506 4.18264 40.0992 3.12739C40.2895 2.78886 40.7181 2.66867 41.0567 2.85908C41.3952 3.04939 41.5153 3.47802 41.325 3.81664C40.785 4.7772 40.2746 5.97758 39.849 7.28773C39.166 9.39102 38.8549 11.2617 38.8549 12.1098C38.855 12.4981 38.5402 12.8128 38.1519 12.8128Z" fill="#3F4E6A"/>
<path d="M40.7126 5.09188C41.944 5.09188 42.9422 4.09363 42.9422 2.86222C42.9422 1.63082 41.944 0.632568 40.7126 0.632568C39.4812 0.632568 38.4829 1.63082 38.4829 2.86222C38.4829 4.09363 39.4812 5.09188 40.7126 5.09188Z" fill="#223661"/>
<path d="M26.7735 23.721C28.316 23.721 29.5665 22.7252 29.5665 21.4968C29.5665 20.2684 28.316 19.2726 26.7735 19.2726C25.2309 19.2726 23.9805 20.2684 23.9805 21.4968C23.9805 22.7252 25.2309 23.721 26.7735 23.721Z" fill="#FFA1AC"/>
<path d="M41.9126 23.721C43.4552 23.721 44.7056 22.7252 44.7056 21.4968C44.7056 20.2684 43.4552 19.2726 41.9126 19.2726C40.3701 19.2726 39.1196 20.2684 39.1196 21.4968C39.1196 22.7252 40.3701 23.721 41.9126 23.721Z" fill="#FFA1AC"/>
<path d="M29.7306 19.7795C29.3423 19.7795 29.0275 19.4648 29.0275 19.0764C29.0275 18.731 28.7465 18.4501 28.4012 18.4501C28.0559 18.4501 27.7749 18.731 27.7749 19.0764C27.7749 19.4648 27.4601 19.7795 27.0718 19.7795C26.6835 19.7795 26.3687 19.4648 26.3687 19.0764C26.3687 17.9556 27.2805 17.0438 28.4012 17.0438C29.522 17.0438 30.4337 17.9556 30.4337 19.0764C30.4337 19.4648 30.1189 19.7795 29.7306 19.7795Z" fill="#425460"/>
<path d="M41.6144 19.7795C41.2261 19.7795 40.9113 19.4648 40.9113 19.0764C40.9113 18.731 40.6303 18.4501 40.2849 18.4501C39.9396 18.4501 39.6587 18.731 39.6587 19.0764C39.6587 19.4648 39.3439 19.7795 38.9556 19.7795C38.5673 19.7795 38.2524 19.4648 38.2524 19.0764C38.2524 17.9556 39.1643 17.0438 40.2849 17.0438C41.4057 17.0438 42.3175 17.9556 42.3175 19.0764C42.3175 19.4648 42.0027 19.7795 41.6144 19.7795Z" fill="#425460"/>
<path d="M34.3428 21.9758C33.5991 21.9758 32.8918 21.6537 32.4025 21.0922C32.1474 20.7994 32.1779 20.3554 32.4707 20.1002C32.7635 19.845 33.2076 19.8756 33.4627 20.1683C33.6849 20.4234 34.0057 20.5696 34.3429 20.5696C34.68 20.5696 35.0008 20.4233 35.2229 20.1684C35.478 19.8755 35.9221 19.8451 36.215 20.1002C36.5077 20.3553 36.5382 20.7994 36.2832 21.0921C35.7937 21.6538 35.0866 21.9758 34.3428 21.9758Z" fill="#425460"/>
</svg>
